<?xml version="1.0" encoding="utf-8" standalone="no"?>
<!DOCTYPE svg PUBLIC "-//W3C//DTD SVG 1.1//EN"
  "http://www.w3.org/Graphics/SVG/1.1/DTD/svg11.dtd">
<svg xmlns:xlink="http://www.w3.org/1999/xlink" width="285.149375pt" height="177.10125pt" viewBox="0 0 285.149375 177.10125" xmlns="http://www.w3.org/2000/svg" version="1.1">
 <metadata>
  <rdf:RDF xmlns:dc="http://purl.org/dc/elements/1.1/" xmlns:cc="http://creativecommons.org/ns#" xmlns:rdf="http://www.w3.org/1999/02/22-rdf-syntax-ns#">
   <cc:Work>
    <dc:type rdf:resource="http://purl.org/dc/dcmitype/StillImage"/>
    <dc:date>2025-10-02T12:16:10.820313</dc:date>
    <dc:format>image/svg+xml</dc:format>
    <dc:creator>
     <cc:Agent>
      <dc:title>Matplotlib v3.10.5, https://matplotlib.org/</dc:title>
     </cc:Agent>
    </dc:creator>
   </cc:Work>
  </rdf:RDF>
 </metadata>
 <defs>
  <style type="text/css">*{stroke-linejoin: round; stroke-linecap: butt}</style>
 </defs>
 <g id="figure_1">
  <g id="patch_1">
   <path d="M 0 177.10125 
L 285.149375 177.10125 
L 285.149375 0 
L 0 0 
z
" style="fill: #ffffff"/>
  </g>
  <g id="axes_1">
   <g id="patch_2">
    <path d="M 38.704375 142.36 
L 277.949375 142.36 
L 277.949375 7.2 
L 38.704375 7.2 
z
" style="fill: #ffffff"/>
   </g>
   <g id="FillBetweenPolyCollection_1">
    <defs>
     <path id="m3f8dce4c93" d="M 79.251162 -159.861417 
L 57.968838 -159.861417 
L 57.718749 -159.86992 
L 57.469969 -159.878423 
L 57.222704 -159.886926 
L 56.977159 -159.895428 
L 56.733535 -159.903931 
L 56.49203 -159.912434 
L 56.25284 -159.920937 
L 56.016161 -159.929439 
L 55.782185 -159.937942 
L 55.551105 -159.946445 
L 55.323112 -159.954948 
L 55.098399 -159.96345 
L 54.877157 -159.971953 
L 54.659578 -159.980456 
L 54.445855 -159.988958 
L 54.236182 -159.997461 
L 54.030754 -160.005964 
L 53.829765 -160.014467 
L 53.633411 -160.022969 
L 53.441888 -160.031472 
L 53.255391 -160.039975 
L 53.074115 -160.048478 
L 52.898253 -160.05698 
L 52.727996 -160.065483 
L 52.563533 -160.073986 
L 52.405046 -160.082489 
L 52.252714 -160.090991 
L 52.106709 -160.099494 
L 51.967194 -160.107997 
L 51.834325 -160.1165 
L 51.708246 -160.125002 
L 51.589089 -160.133505 
L 51.476974 -160.142008 
L 51.372005 -160.150511 
L 51.274271 -160.159013 
L 51.183842 -160.167516 
L 51.100772 -160.176019 
L 51.025092 -160.184522 
L 50.956816 -160.193024 
L 50.895934 -160.201527 
L 50.842416 -160.21003 
L 50.796207 -160.218533 
L 50.757233 -160.227035 
L 50.725393 -160.235538 
L 50.700566 -160.244041 
L 50.682609 -160.252543 
L 50.671357 -160.261046 
L 50.666625 -160.269549 
L 50.668208 -160.278052 
L 50.675885 -160.286554 
L 50.689416 -160.295057 
L 50.708551 -160.30356 
L 50.733024 -160.312063 
L 50.762561 -160.320565 
L 50.796882 -160.329068 
L 50.835701 -160.337571 
L 50.87873 -160.346074 
L 50.925683 -160.354576 
L 50.976277 -160.363079 
L 51.030238 -160.371582 
L 51.087299 -160.380085 
L 51.147207 -160.388587 
L 51.209725 -160.39709 
L 51.274633 -160.405593 
L 51.341733 -160.414096 
L 51.41085 -160.422598 
L 51.481832 -160.431101 
L 51.554556 -160.439604 
L 51.628928 -160.448107 
L 51.704881 -160.456609 
L 51.782382 -160.465112 
L 51.861427 -160.473615 
L 51.942046 -160.482118 
L 52.024298 -160.49062 
L 52.108274 -160.499123 
L 52.194096 -160.507626 
L 52.281914 -160.516129 
L 52.371905 -160.524631 
L 52.464272 -160.533134 
L 52.559241 -160.541637 
L 52.657059 -160.550139 
L 52.757989 -160.558642 
L 52.862311 -160.567145 
L 52.970315 -160.575648 
L 53.082298 -160.58415 
L 53.198562 -160.592653 
L 53.319411 -160.601156 
L 53.445144 -160.609659 
L 53.576052 -160.618161 
L 53.712417 -160.626664 
L 53.854505 -160.635167 
L 54.002565 -160.64367 
L 54.156824 -160.652172 
L 54.317484 -160.660675 
L 54.48472 -160.669178 
L 54.658674 -160.677681 
L 54.839457 -160.686183 
L 55.027146 -160.694686 
L 55.221777 -160.703189 
L 81.998223 -160.703189 
L 81.998223 -160.703189 
L 82.192854 -160.694686 
L 82.380543 -160.686183 
L 82.561326 -160.677681 
L 82.73528 -160.669178 
L 82.902516 -160.660675 
L 83.063176 -160.652172 
L 83.217435 -160.64367 
L 83.365495 -160.635167 
L 83.507583 -160.626664 
L 83.643948 -160.618161 
L 83.774856 -160.609659 
L 83.900589 -160.601156 
L 84.021438 -160.592653 
L 84.137702 -160.58415 
L 84.249685 -160.575648 
L 84.357689 -160.567145 
L 84.462011 -160.558642 
L 84.562941 -160.550139 
L 84.660759 -160.541637 
L 84.755728 -160.533134 
L 84.848095 -160.524631 
L 84.938086 -160.516129 
L 85.025904 -160.507626 
L 85.111726 -160.499123 
L 85.195702 -160.49062 
L 85.277954 -160.482118 
L 85.358573 -160.473615 
L 85.437618 -160.465112 
L 85.515119 -160.456609 
L 85.591072 -160.448107 
L 85.665444 -160.439604 
L 85.738168 -160.431101 
L 85.80915 -160.422598 
L 85.878267 -160.414096 
L 85.945367 -160.405593 
L 86.010275 -160.39709 
L 86.072793 -160.388587 
L 86.132701 -160.380085 
L 86.189762 -160.371582 
L 86.243723 -160.363079 
L 86.294317 -160.354576 
L 86.34127 -160.346074 
L 86.384299 -160.337571 
L 86.423118 -160.329068 
L 86.457439 -160.320565 
L 86.486976 -160.312063 
L 86.511449 -160.30356 
L 86.530584 -160.295057 
L 86.544115 -160.286554 
L 86.551792 -160.278052 
L 86.553375 -160.269549 
L 86.548643 -160.261046 
L 86.537391 -160.252543 
L 86.519434 -160.244041 
L 86.494607 -160.235538 
L 86.462767 -160.227035 
L 86.423793 -160.218533 
L 86.377584 -160.21003 
L 86.324066 -160.201527 
L 86.263184 -160.193024 
L 86.194908 -160.184522 
L 86.119228 -160.176019 
L 86.036158 -160.167516 
L 85.945729 -160.159013 
L 85.847995 -160.150511 
L 85.743026 -160.142008 
L 85.630911 -160.133505 
L 85.511754 -160.125002 
L 85.385675 -160.1165 
L 85.252806 -160.107997 
L 85.113291 -160.099494 
L 84.967286 -160.090991 
L 84.814954 -160.082489 
L 84.656467 -160.073986 
L 84.492004 -160.065483 
L 84.321747 -160.05698 
L 84.145885 -160.048478 
L 83.964609 -160.039975 
L 83.778112 -160.031472 
L 83.586589 -160.022969 
L 83.390235 -160.014467 
L 83.189246 -160.005964 
L 82.983818 -159.997461 
L 82.774145 -159.988958 
L 82.560422 -159.980456 
L 82.342843 -159.971953 
L 82.121601 -159.96345 
L 81.896888 -159.954948 
L 81.668895 -159.946445 
L 81.437815 -159.937942 
L 81.203839 -159.929439 
L 80.96716 -159.920937 
L 80.72797 -159.912434 
L 80.486465 -159.903931 
L 80.242841 -159.895428 
L 79.997296 -159.886926 
L 79.750031 -159.878423 
L 79.501251 -159.86992 
L 79.251162 -159.861417 
z
" style="stroke: #000000; stroke-opacity: 0.6"/>
    </defs>
    <g clip-path="url(#p5716f470e5)">
     <use xlink:href="#m3f8dce4c93" x="0" y="177.10125" style="fill: #2166ac; fill-opacity: 0.6; stroke: #000000; stroke-opacity: 0.6"/>
    </g>
   </g>
   <g id="FillBetweenPolyCollection_2">
    <defs>
     <path id="m1de542034e" d="M 136.582697 -112.25105 
L 120.259803 -112.25105 
L 120.147226 -112.290074 
L 120.040171 -112.329098 
L 119.938723 -112.368121 
L 119.842934 -112.407145 
L 119.752823 -112.446169 
L 119.668376 -112.485193 
L 119.589547 -112.524217 
L 119.516253 -112.563241 
L 119.448375 -112.602265 
L 119.385762 -112.641289 
L 119.328225 -112.680313 
L 119.27554 -112.719337 
L 119.227449 -112.758361 
L 119.18366 -112.797385 
L 119.143848 -112.836409 
L 119.107657 -112.875433 
L 119.074698 -112.914457 
L 119.044555 -112.953481 
L 119.016786 -112.992505 
L 118.990921 -113.031529 
L 118.966472 -113.070553 
L 118.942926 -113.109577 
L 118.919757 -113.148601 
L 118.896421 -113.187624 
L 118.872364 -113.226648 
L 118.847027 -113.265672 
L 118.81984 -113.304696 
L 118.790238 -113.34372 
L 118.757655 -113.382744 
L 118.721532 -113.421768 
L 118.68132 -113.460792 
L 118.636484 -113.499816 
L 118.586505 -113.53884 
L 118.530889 -113.577864 
L 118.469163 -113.616888 
L 118.400885 -113.655912 
L 118.325647 -113.694936 
L 118.243075 -113.73396 
L 118.152834 -113.772984 
L 118.054634 -113.812008 
L 117.948228 -113.851032 
L 117.833421 -113.890056 
L 117.710067 -113.92908 
L 117.578072 -113.968104 
L 117.437401 -114.007127 
L 117.288074 -114.046151 
L 117.130169 -114.085175 
L 116.963826 -114.124199 
L 116.789242 -114.163223 
L 116.606678 -114.202247 
L 116.416453 -114.241271 
L 116.218947 -114.280295 
L 116.014599 -114.319319 
L 115.803908 -114.358343 
L 115.587425 -114.397367 
L 115.365759 -114.436391 
L 115.13957 -114.475415 
L 114.909566 -114.514439 
L 114.676503 -114.553463 
L 114.441177 -114.592487 
L 114.204424 -114.631511 
L 113.967116 -114.670535 
L 113.730153 -114.709559 
L 113.494462 -114.748583 
L 113.26099 -114.787607 
L 113.030699 -114.82663 
L 112.804564 -114.865654 
L 112.583563 -114.904678 
L 112.368675 -114.943702 
L 112.160873 -114.982726 
L 111.961118 -115.02175 
L 111.770357 -115.060774 
L 111.589512 -115.099798 
L 111.419481 -115.138822 
L 111.261127 -115.177846 
L 111.115278 -115.21687 
L 110.98272 -115.255894 
L 110.864191 -115.294918 
L 110.760379 -115.333942 
L 110.67192 -115.372966 
L 110.599389 -115.41199 
L 110.543301 -115.451014 
L 110.504108 -115.490038 
L 110.482194 -115.529062 
L 110.477875 -115.568086 
L 110.491398 -115.60711 
L 110.522939 -115.646134 
L 110.5726 -115.685157 
L 110.640414 -115.724181 
L 110.72634 -115.763205 
L 110.830267 -115.802229 
L 110.952014 -115.841253 
L 111.091329 -115.880277 
L 111.247896 -115.919301 
L 111.421334 -115.958325 
L 111.611197 -115.997349 
L 111.816985 -116.036373 
L 112.038137 -116.075397 
L 112.274044 -116.114421 
L 144.568456 -116.114421 
L 144.568456 -116.114421 
L 144.804363 -116.075397 
L 145.025515 -116.036373 
L 145.231303 -115.997349 
L 145.421166 -115.958325 
L 145.594604 -115.919301 
L 145.751171 -115.880277 
L 145.890486 -115.841253 
L 146.012233 -115.802229 
L 146.11616 -115.763205 
L 146.202086 -115.724181 
L 146.2699 -115.685157 
L 146.319561 -115.646134 
L 146.351102 -115.60711 
L 146.364625 -115.568086 
L 146.360306 -115.529062 
L 146.338392 -115.490038 
L 146.299199 -115.451014 
L 146.243111 -115.41199 
L 146.17058 -115.372966 
L 146.082121 -115.333942 
L 145.978309 -115.294918 
L 145.85978 -115.255894 
L 145.727222 -115.21687 
L 145.581373 -115.177846 
L 145.423019 -115.138822 
L 145.252988 -115.099798 
L 145.072143 -115.060774 
L 144.881382 -115.02175 
L 144.681627 -114.982726 
L 144.473825 -114.943702 
L 144.258937 -114.904678 
L 144.037936 -114.865654 
L 143.811801 -114.82663 
L 143.58151 -114.787607 
L 143.348038 -114.748583 
L 143.112347 -114.709559 
L 142.875384 -114.670535 
L 142.638076 -114.631511 
L 142.401323 -114.592487 
L 142.165997 -114.553463 
L 141.932934 -114.514439 
L 141.70293 -114.475415 
L 141.476741 -114.436391 
L 141.255075 -114.397367 
L 141.038592 -114.358343 
L 140.827901 -114.319319 
L 140.623553 -114.280295 
L 140.426047 -114.241271 
L 140.235822 -114.202247 
L 140.053258 -114.163223 
L 139.878674 -114.124199 
L 139.712331 -114.085175 
L 139.554426 -114.046151 
L 139.405099 -114.007127 
L 139.264428 -113.968104 
L 139.132433 -113.92908 
L 139.009079 -113.890056 
L 138.894272 -113.851032 
L 138.787866 -113.812008 
L 138.689666 -113.772984 
L 138.599425 -113.73396 
L 138.516853 -113.694936 
L 138.441615 -113.655912 
L 138.373337 -113.616888 
L 138.311611 -113.577864 
L 138.255995 -113.53884 
L 138.206016 -113.499816 
L 138.16118 -113.460792 
L 138.120968 -113.421768 
L 138.084845 -113.382744 
L 138.052262 -113.34372 
L 138.02266 -113.304696 
L 137.995473 -113.265672 
L 137.970136 -113.226648 
L 137.946079 -113.187624 
L 137.922743 -113.148601 
L 137.899574 -113.109577 
L 137.876028 -113.070553 
L 137.851579 -113.031529 
L 137.825714 -112.992505 
L 137.797945 -112.953481 
L 137.767802 -112.914457 
L 137.734843 -112.875433 
L 137.698652 -112.836409 
L 137.65884 -112.797385 
L 137.615051 -112.758361 
L 137.56696 -112.719337 
L 137.514275 -112.680313 
L 137.456738 -112.641289 
L 137.394125 -112.602265 
L 137.326247 -112.563241 
L 137.252953 -112.524217 
L 137.174124 -112.485193 
L 137.089677 -112.446169 
L 136.999566 -112.407145 
L 136.903777 -112.368121 
L 136.802329 -112.329098 
L 136.695274 -112.290074 
L 136.582697 -112.25105 
z
" style="stroke: #000000; stroke-opacity: 0.6"/>
    </defs>
    <g clip-path="url(#p5716f470e5)">
     <use xlink:href="#m1de542034e" x="0" y="177.10125" style="fill: #b2182b; fill-opacity: 0.6; stroke: #000000; stroke-opacity: 0.6"/>
    </g>
   </g>
   <g id="FillBetweenPolyCollection_3">
    <defs>
     <path id="m8af6ed0925" d="M 202.810271 -151.800516 
L 173.654729 -151.800516 
L 173.357597 -151.820754 
L 173.070685 -151.840993 
L 172.794731 -151.861231 
L 172.530442 -151.881469 
L 172.278488 -151.901708 
L 172.039504 -151.921946 
L 171.814081 -151.942184 
L 171.602767 -151.962422 
L 171.406058 -151.982661 
L 171.224401 -152.002899 
L 171.058188 -152.023137 
L 170.907756 -152.043376 
L 170.77338 -152.063614 
L 170.655277 -152.083852 
L 170.5536 -152.104091 
L 170.468442 -152.124329 
L 170.399829 -152.144567 
L 170.347724 -152.164806 
L 170.312025 -152.185044 
L 170.292568 -152.205282 
L 170.289125 -152.22552 
L 170.301406 -152.245759 
L 170.329062 -152.265997 
L 170.371686 -152.286235 
L 170.428813 -152.306474 
L 170.499928 -152.326712 
L 170.584464 -152.34695 
L 170.681809 -152.367189 
L 170.791306 -152.387427 
L 170.91226 -152.407665 
L 171.043942 -152.427903 
L 171.185592 -152.448142 
L 171.336422 -152.46838 
L 171.495625 -152.488618 
L 171.662377 -152.508857 
L 171.835842 -152.529095 
L 172.015177 -152.549333 
L 172.199539 -152.569572 
L 172.388084 -152.58981 
L 172.579981 -152.610048 
L 172.774409 -152.630287 
L 172.970565 -152.650525 
L 173.167668 -152.670763 
L 173.364962 -152.691001 
L 173.561722 -152.71124 
L 173.757258 -152.731478 
L 173.950916 -152.751716 
L 174.142083 -152.771955 
L 174.33019 -152.792193 
L 174.514714 -152.812431 
L 174.695181 -152.83267 
L 174.871166 -152.852908 
L 175.042297 -152.873146 
L 175.208255 -152.893384 
L 175.368773 -152.913623 
L 175.523639 -152.933861 
L 175.672696 -152.954099 
L 175.815839 -152.974338 
L 175.953017 -152.994576 
L 176.084229 -153.014814 
L 176.209526 -153.035053 
L 176.329007 -153.055291 
L 176.442817 -153.075529 
L 176.551146 -153.095768 
L 176.654224 -153.116006 
L 176.752323 -153.136244 
L 176.845746 -153.156482 
L 176.934832 -153.176721 
L 177.019948 -153.196959 
L 177.101487 -153.217197 
L 177.179864 -153.237436 
L 177.255511 -153.257674 
L 177.328878 -153.277912 
L 177.400422 -153.298151 
L 177.47061 -153.318389 
L 177.539913 -153.338627 
L 177.608799 -153.358865 
L 177.677736 -153.379104 
L 177.747184 -153.399342 
L 177.817591 -153.41958 
L 177.889395 -153.439819 
L 177.963016 -153.460057 
L 178.038856 -153.480295 
L 178.117294 -153.500534 
L 178.198687 -153.520772 
L 178.283365 -153.54101 
L 178.371631 -153.561249 
L 178.463759 -153.581487 
L 178.559991 -153.601725 
L 178.660538 -153.621963 
L 178.765578 -153.642202 
L 178.875255 -153.66244 
L 178.98968 -153.682678 
L 179.10893 -153.702917 
L 179.233047 -153.723155 
L 179.362041 -153.743393 
L 179.495888 -153.763632 
L 179.634532 -153.78387 
L 179.777885 -153.804108 
L 196.687115 -153.804108 
L 196.687115 -153.804108 
L 196.830468 -153.78387 
L 196.969112 -153.763632 
L 197.102959 -153.743393 
L 197.231953 -153.723155 
L 197.35607 -153.702917 
L 197.47532 -153.682678 
L 197.589745 -153.66244 
L 197.699422 -153.642202 
L 197.804462 -153.621963 
L 197.905009 -153.601725 
L 198.001241 -153.581487 
L 198.093369 -153.561249 
L 198.181635 -153.54101 
L 198.266313 -153.520772 
L 198.347706 -153.500534 
L 198.426144 -153.480295 
L 198.501984 -153.460057 
L 198.575605 -153.439819 
L 198.647409 -153.41958 
L 198.717816 -153.399342 
L 198.787264 -153.379104 
L 198.856201 -153.358865 
L 198.925087 -153.338627 
L 198.99439 -153.318389 
L 199.064578 -153.298151 
L 199.136122 -153.277912 
L 199.209489 -153.257674 
L 199.285136 -153.237436 
L 199.363513 -153.217197 
L 199.445052 -153.196959 
L 199.530168 -153.176721 
L 199.619254 -153.156482 
L 199.712677 -153.136244 
L 199.810776 -153.116006 
L 199.913854 -153.095768 
L 200.022183 -153.075529 
L 200.135993 -153.055291 
L 200.255474 -153.035053 
L 200.380771 -153.014814 
L 200.511983 -152.994576 
L 200.649161 -152.974338 
L 200.792304 -152.954099 
L 200.941361 -152.933861 
L 201.096227 -152.913623 
L 201.256745 -152.893384 
L 201.422703 -152.873146 
L 201.593834 -152.852908 
L 201.769819 -152.83267 
L 201.950286 -152.812431 
L 202.13481 -152.792193 
L 202.322917 -152.771955 
L 202.514084 -152.751716 
L 202.707742 -152.731478 
L 202.903278 -152.71124 
L 203.100038 -152.691001 
L 203.297332 -152.670763 
L 203.494435 -152.650525 
L 203.690591 -152.630287 
L 203.885019 -152.610048 
L 204.076916 -152.58981 
L 204.265461 -152.569572 
L 204.449823 -152.549333 
L 204.629158 -152.529095 
L 204.802623 -152.508857 
L 204.969375 -152.488618 
L 205.128578 -152.46838 
L 205.279408 -152.448142 
L 205.421058 -152.427903 
L 205.55274 -152.407665 
L 205.673694 -152.387427 
L 205.783191 -152.367189 
L 205.880536 -152.34695 
L 205.965072 -152.326712 
L 206.036187 -152.306474 
L 206.093314 -152.286235 
L 206.135938 -152.265997 
L 206.163594 -152.245759 
L 206.175875 -152.22552 
L 206.172432 -152.205282 
L 206.152975 -152.185044 
L 206.117276 -152.164806 
L 206.065171 -152.144567 
L 205.996558 -152.124329 
L 205.9114 -152.104091 
L 205.809723 -152.083852 
L 205.69162 -152.063614 
L 205.557244 -152.043376 
L 205.406812 -152.023137 
L 205.240599 -152.002899 
L 205.058942 -151.982661 
L 204.862233 -151.962422 
L 204.650919 -151.942184 
L 204.425496 -151.921946 
L 204.186512 -151.901708 
L 203.934558 -151.881469 
L 203.670269 -151.861231 
L 203.394315 -151.840993 
L 203.107403 -151.820754 
L 202.810271 -151.800516 
z
" style="stroke: #000000; stroke-opacity: 0.6"/>
    </defs>
    <g clip-path="url(#p5716f470e5)">
     <use xlink:href="#m8af6ed0925" x="0" y="177.10125" style="fill: #35978f; fill-opacity: 0.6; stroke: #000000; stroke-opacity: 0.6"/>
    </g>
   </g>
   <g id="FillBetweenPolyCollection_4">
    <defs>
     <path id="m09961eb9c7" d="M 253.496964 -44.294412 
L 242.590536 -44.294412 
L 242.513047 -44.370596 
L 242.436907 -44.44678 
L 242.361764 -44.522965 
L 242.28723 -44.599149 
L 242.212887 -44.675333 
L 242.138287 -44.751517 
L 242.06296 -44.827701 
L 241.98641 -44.903885 
L 241.90813 -44.980069 
L 241.827594 -45.056254 
L 241.744273 -45.132438 
L 241.65763 -45.208622 
L 241.567134 -45.284806 
L 241.472257 -45.36099 
L 241.372485 -45.437174 
L 241.267319 -45.513358 
L 241.156283 -45.589542 
L 241.038927 -45.665727 
L 240.914833 -45.741911 
L 240.783619 -45.818095 
L 240.644943 -45.894279 
L 240.498508 -45.970463 
L 240.344062 -46.046647 
L 240.181408 -46.122831 
L 240.010402 -46.199016 
L 239.830953 -46.2752 
L 239.643032 -46.351384 
L 239.446667 -46.427568 
L 239.241948 -46.503752 
L 239.029023 -46.579936 
L 238.808103 -46.65612 
L 238.579456 -46.732305 
L 238.343411 -46.808489 
L 238.100351 -46.884673 
L 237.850714 -46.960857 
L 237.59499 -47.037041 
L 237.333718 -47.113225 
L 237.067481 -47.189409 
L 236.796904 -47.265594 
L 236.522648 -47.341778 
L 236.245411 -47.417962 
L 235.965913 -47.494146 
L 235.684905 -47.57033 
L 235.403151 -47.646514 
L 235.121435 -47.722698 
L 234.840546 -47.798883 
L 234.561281 -47.875067 
L 234.284438 -47.951251 
L 234.010809 -48.027435 
L 233.741181 -48.103619 
L 233.476327 -48.179803 
L 233.217005 -48.255987 
L 232.963955 -48.332171 
L 232.717894 -48.408356 
L 232.479515 -48.48454 
L 232.249484 -48.560724 
L 232.028437 -48.636908 
L 231.81698 -48.713092 
L 231.615685 -48.789276 
L 231.425093 -48.86546 
L 231.245708 -48.941645 
L 231.078 -49.017829 
L 230.922405 -49.094013 
L 230.779323 -49.170197 
L 230.649118 -49.246381 
L 230.532123 -49.322565 
L 230.428632 -49.398749 
L 230.338908 -49.474934 
L 230.263182 -49.551118 
L 230.201653 -49.627302 
L 230.154486 -49.703486 
L 230.121817 -49.77967 
L 230.103755 -49.855854 
L 230.100375 -49.932038 
L 230.111727 -50.008223 
L 230.137832 -50.084407 
L 230.178684 -50.160591 
L 230.234248 -50.236775 
L 230.304465 -50.312959 
L 230.389247 -50.389143 
L 230.48848 -50.465327 
L 230.602022 -50.541512 
L 230.729707 -50.617696 
L 230.871338 -50.69388 
L 231.026693 -50.770064 
L 231.195522 -50.846248 
L 231.377548 -50.922432 
L 231.572463 -50.998616 
L 231.779933 -51.0748 
L 231.999594 -51.150985 
L 232.231056 -51.227169 
L 232.473898 -51.303353 
L 232.727673 -51.379537 
L 232.991904 -51.455721 
L 233.266088 -51.531905 
L 233.549696 -51.608089 
L 233.842174 -51.684274 
L 234.142943 -51.760458 
L 234.4514 -51.836642 
L 261.6361 -51.836642 
L 261.6361 -51.836642 
L 261.944557 -51.760458 
L 262.245326 -51.684274 
L 262.537804 -51.608089 
L 262.821412 -51.531905 
L 263.095596 -51.455721 
L 263.359827 -51.379537 
L 263.613602 -51.303353 
L 263.856444 -51.227169 
L 264.087906 -51.150985 
L 264.307567 -51.0748 
L 264.515037 -50.998616 
L 264.709952 -50.922432 
L 264.891978 -50.846248 
L 265.060807 -50.770064 
L 265.216162 -50.69388 
L 265.357793 -50.617696 
L 265.485478 -50.541512 
L 265.59902 -50.465327 
L 265.698253 -50.389143 
L 265.783035 -50.312959 
L 265.853252 -50.236775 
L 265.908816 -50.160591 
L 265.949668 -50.084407 
L 265.975773 -50.008223 
L 265.987125 -49.932038 
L 265.983745 -49.855854 
L 265.965683 -49.77967 
L 265.933014 -49.703486 
L 265.885847 -49.627302 
L 265.824318 -49.551118 
L 265.748592 -49.474934 
L 265.658868 -49.398749 
L 265.555377 -49.322565 
L 265.438382 -49.246381 
L 265.308177 -49.170197 
L 265.165095 -49.094013 
L 265.0095 -49.017829 
L 264.841792 -48.941645 
L 264.662407 -48.86546 
L 264.471815 -48.789276 
L 264.27052 -48.713092 
L 264.059063 -48.636908 
L 263.838016 -48.560724 
L 263.607985 -48.48454 
L 263.369606 -48.408356 
L 263.123545 -48.332171 
L 262.870495 -48.255987 
L 262.611173 -48.179803 
L 262.346319 -48.103619 
L 262.076691 -48.027435 
L 261.803062 -47.951251 
L 261.526219 -47.875067 
L 261.246954 -47.798883 
L 260.966065 -47.722698 
L 260.684349 -47.646514 
L 260.402595 -47.57033 
L 260.121587 -47.494146 
L 259.842089 -47.417962 
L 259.564852 -47.341778 
L 259.290596 -47.265594 
L 259.020019 -47.189409 
L 258.753782 -47.113225 
L 258.49251 -47.037041 
L 258.236786 -46.960857 
L 257.987149 -46.884673 
L 257.744089 -46.808489 
L 257.508044 -46.732305 
L 257.279397 -46.65612 
L 257.058477 -46.579936 
L 256.845552 -46.503752 
L 256.640833 -46.427568 
L 256.444468 -46.351384 
L 256.256547 -46.2752 
L 256.077098 -46.199016 
L 255.906092 -46.122831 
L 255.743438 -46.046647 
L 255.588992 -45.970463 
L 255.442557 -45.894279 
L 255.303881 -45.818095 
L 255.172667 -45.741911 
L 255.048573 -45.665727 
L 254.931217 -45.589542 
L 254.820181 -45.513358 
L 254.715015 -45.437174 
L 254.615243 -45.36099 
L 254.520366 -45.284806 
L 254.42987 -45.208622 
L 254.343227 -45.132438 
L 254.259906 -45.056254 
L 254.17937 -44.980069 
L 254.10109 -44.903885 
L 254.02454 -44.827701 
L 253.949213 -44.751517 
L 253.874613 -44.675333 
L 253.80027 -44.599149 
L 253.725736 -44.522965 
L 253.650593 -44.44678 
L 253.574453 -44.370596 
L 253.496964 -44.294412 
z
" style="stroke: #000000; stroke-opacity: 0.6"/>
    </defs>
    <g clip-path="url(#p5716f470e5)">
     <use xlink:href="#m09961eb9c7" x="0" y="177.10125" style="fill: #762a83; fill-opacity: 0.6; stroke: #000000; stroke-opacity: 0.6"/>
    </g>
   </g>
   <g id="matplotlib.axis_1">
    <g id="xtick_1">
     <g id="line2d_1">
      <defs>
       <path id="m7b5fbf8fba" d="M 0 0 
L 0 3.5 
" style="stroke: #000000; stroke-width: 0.8"/>
      </defs>
      <g>
       <use xlink:href="#m7b5fbf8fba" x="68.61" y="142.36" style="stroke: #000000; stroke-width: 0.8"/>
      </g>
     </g>
     <g id="text_1">
      <!-- Control -->
      <g transform="translate(55.71625 155.08625) scale(0.08 -0.08)">
       <defs>
        <path id="ArialMT-43" d="M 3763 1606 
L 4369 1453 
Q 4178 706 3683 314 
Q 3188 -78 2472 -78 
Q 1731 -78 1267 223 
Q 803 525 561 1097 
Q 319 1669 319 2325 
Q 319 3041 592 3573 
Q 866 4106 1370 4382 
Q 1875 4659 2481 4659 
Q 3169 4659 3637 4309 
Q 4106 3959 4291 3325 
L 3694 3184 
Q 3534 3684 3231 3912 
Q 2928 4141 2469 4141 
Q 1941 4141 1586 3887 
Q 1231 3634 1087 3207 
Q 944 2781 944 2328 
Q 944 1744 1114 1308 
Q 1284 872 1643 656 
Q 2003 441 2422 441 
Q 2931 441 3284 734 
Q 3638 1028 3763 1606 
z
" transform="scale(0.015625)"/>
        <path id="ArialMT-6f" d="M 213 1659 
Q 213 2581 725 3025 
Q 1153 3394 1769 3394 
Q 2453 3394 2887 2945 
Q 3322 2497 3322 1706 
Q 3322 1066 3130 698 
Q 2938 331 2570 128 
Q 2203 -75 1769 -75 
Q 1072 -75 642 372 
Q 213 819 213 1659 
z
M 791 1659 
Q 791 1022 1069 705 
Q 1347 388 1769 388 
Q 2188 388 2466 706 
Q 2744 1025 2744 1678 
Q 2744 2294 2464 2611 
Q 2184 2928 1769 2928 
Q 1347 2928 1069 2612 
Q 791 2297 791 1659 
z
" transform="scale(0.015625)"/>
        <path id="ArialMT-6e" d="M 422 0 
L 422 3319 
L 928 3319 
L 928 2847 
Q 1294 3394 1984 3394 
Q 2284 3394 2536 3286 
Q 2788 3178 2913 3003 
Q 3038 2828 3088 2588 
Q 3119 2431 3119 2041 
L 3119 0 
L 2556 0 
L 2556 2019 
Q 2556 2363 2490 2533 
Q 2425 2703 2258 2804 
Q 2091 2906 1866 2906 
Q 1506 2906 1245 2678 
Q 984 2450 984 1813 
L 984 0 
L 422 0 
z
" transform="scale(0.015625)"/>
        <path id="ArialMT-74" d="M 1650 503 
L 1731 6 
Q 1494 -44 1306 -44 
Q 1000 -44 831 53 
Q 663 150 594 308 
Q 525 466 525 972 
L 525 2881 
L 113 2881 
L 113 3319 
L 525 3319 
L 525 4141 
L 1084 4478 
L 1084 3319 
L 1650 3319 
L 1650 2881 
L 1084 2881 
L 1084 941 
Q 1084 700 1114 631 
Q 1144 563 1211 522 
Q 1278 481 1403 481 
Q 1497 481 1650 503 
z
" transform="scale(0.015625)"/>
        <path id="ArialMT-72" d="M 416 0 
L 416 3319 
L 922 3319 
L 922 2816 
Q 1116 3169 1280 3281 
Q 1444 3394 1641 3394 
Q 1925 3394 2219 3213 
L 2025 2691 
Q 1819 2813 1613 2813 
Q 1428 2813 1281 2702 
Q 1134 2591 1072 2394 
Q 978 2094 978 1738 
L 978 0 
L 416 0 
z
" transform="scale(0.015625)"/>
        <path id="ArialMT-6c" d="M 409 0 
L 409 4581 
L 972 4581 
L 972 0 
L 409 0 
z
" transform="scale(0.015625)"/>
       </defs>
       <use xlink:href="#ArialMT-43"/>
       <use xlink:href="#ArialMT-6f" transform="translate(72.216797 0)"/>
       <use xlink:href="#ArialMT-6e" transform="translate(127.832031 0)"/>
       <use xlink:href="#ArialMT-74" transform="translate(183.447266 0)"/>
       <use xlink:href="#ArialMT-72" transform="translate(211.230469 0)"/>
       <use xlink:href="#ArialMT-6f" transform="translate(244.53125 0)"/>
       <use xlink:href="#ArialMT-6c" transform="translate(300.146484 0)"/>
      </g>
     </g>
    </g>
    <g id="xtick_2">
     <g id="line2d_2">
      <g>
       <use xlink:href="#m7b5fbf8fba" x="128.42125" y="142.36" style="stroke: #000000; stroke-width: 0.8"/>
      </g>
     </g>
     <g id="text_2">
      <!-- Ap-High -->
      <g transform="translate(113.970625 155.08625) scale(0.08 -0.08)">
       <defs>
        <path id="ArialMT-41" d="M -9 0 
L 1750 4581 
L 2403 4581 
L 4278 0 
L 3588 0 
L 3053 1388 
L 1138 1388 
L 634 0 
L -9 0 
z
M 1313 1881 
L 2866 1881 
L 2388 3150 
Q 2169 3728 2063 4100 
Q 1975 3659 1816 3225 
L 1313 1881 
z
" transform="scale(0.015625)"/>
        <path id="ArialMT-70" d="M 422 -1272 
L 422 3319 
L 934 3319 
L 934 2888 
Q 1116 3141 1344 3267 
Q 1572 3394 1897 3394 
Q 2322 3394 2647 3175 
Q 2972 2956 3137 2557 
Q 3303 2159 3303 1684 
Q 3303 1175 3120 767 
Q 2938 359 2589 142 
Q 2241 -75 1856 -75 
Q 1575 -75 1351 44 
Q 1128 163 984 344 
L 984 -1272 
L 422 -1272 
z
M 931 1641 
Q 931 1000 1190 694 
Q 1450 388 1819 388 
Q 2194 388 2461 705 
Q 2728 1022 2728 1688 
Q 2728 2322 2467 2637 
Q 2206 2953 1844 2953 
Q 1484 2953 1207 2617 
Q 931 2281 931 1641 
z
" transform="scale(0.015625)"/>
        <path id="ArialMT-2d" d="M 203 1375 
L 203 1941 
L 1931 1941 
L 1931 1375 
L 203 1375 
z
" transform="scale(0.015625)"/>
        <path id="ArialMT-48" d="M 513 0 
L 513 4581 
L 1119 4581 
L 1119 2700 
L 3500 2700 
L 3500 4581 
L 4106 4581 
L 4106 0 
L 3500 0 
L 3500 2159 
L 1119 2159 
L 1119 0 
L 513 0 
z
" transform="scale(0.015625)"/>
        <path id="ArialMT-69" d="M 425 3934 
L 425 4581 
L 988 4581 
L 988 3934 
L 425 3934 
z
M 425 0 
L 425 3319 
L 988 3319 
L 988 0 
L 425 0 
z
" transform="scale(0.015625)"/>
        <path id="ArialMT-67" d="M 319 -275 
L 866 -356 
Q 900 -609 1056 -725 
Q 1266 -881 1628 -881 
Q 2019 -881 2231 -725 
Q 2444 -569 2519 -288 
Q 2563 -116 2559 434 
Q 2191 0 1641 0 
Q 956 0 581 494 
Q 206 988 206 1678 
Q 206 2153 378 2554 
Q 550 2956 876 3175 
Q 1203 3394 1644 3394 
Q 2231 3394 2613 2919 
L 2613 3319 
L 3131 3319 
L 3131 450 
Q 3131 -325 2973 -648 
Q 2816 -972 2473 -1159 
Q 2131 -1347 1631 -1347 
Q 1038 -1347 672 -1080 
Q 306 -813 319 -275 
z
M 784 1719 
Q 784 1066 1043 766 
Q 1303 466 1694 466 
Q 2081 466 2343 764 
Q 2606 1063 2606 1700 
Q 2606 2309 2336 2618 
Q 2066 2928 1684 2928 
Q 1309 2928 1046 2623 
Q 784 2319 784 1719 
z
" transform="scale(0.015625)"/>
        <path id="ArialMT-68" d="M 422 0 
L 422 4581 
L 984 4581 
L 984 2938 
Q 1378 3394 1978 3394 
Q 2347 3394 2619 3248 
Q 2891 3103 3008 2847 
Q 3125 2591 3125 2103 
L 3125 0 
L 2563 0 
L 2563 2103 
Q 2563 2525 2380 2717 
Q 2197 2909 1863 2909 
Q 1613 2909 1392 2779 
Q 1172 2650 1078 2428 
Q 984 2206 984 1816 
L 984 0 
L 422 0 
z
" transform="scale(0.015625)"/>
       </defs>
       <use xlink:href="#ArialMT-41"/>
       <use xlink:href="#ArialMT-70" transform="translate(66.699219 0)"/>
       <use xlink:href="#ArialMT-2d" transform="translate(122.314453 0)"/>
       <use xlink:href="#ArialMT-48" transform="translate(155.615234 0)"/>
       <use xlink:href="#ArialMT-69" transform="translate(227.832031 0)"/>
       <use xlink:href="#ArialMT-67" transform="translate(250.048828 0)"/>
       <use xlink:href="#ArialMT-68" transform="translate(305.664062 0)"/>
      </g>
     </g>
    </g>
    <g id="xtick_3">
     <g id="line2d_3">
      <g>
       <use xlink:href="#m7b5fbf8fba" x="188.2325" y="142.36" style="stroke: #000000; stroke-width: 0.8"/>
      </g>
     </g>
     <g id="text_3">
      <!-- Rh-High -->
      <g transform="translate(173.56125 155.08625) scale(0.08 -0.08)">
       <defs>
        <path id="ArialMT-52" d="M 503 0 
L 503 4581 
L 2534 4581 
Q 3147 4581 3465 4457 
Q 3784 4334 3975 4021 
Q 4166 3709 4166 3331 
Q 4166 2844 3850 2509 
Q 3534 2175 2875 2084 
Q 3116 1969 3241 1856 
Q 3506 1613 3744 1247 
L 4541 0 
L 3778 0 
L 3172 953 
Q 2906 1366 2734 1584 
Q 2563 1803 2427 1890 
Q 2291 1978 2150 2013 
Q 2047 2034 1813 2034 
L 1109 2034 
L 1109 0 
L 503 0 
z
M 1109 2559 
L 2413 2559 
Q 2828 2559 3062 2645 
Q 3297 2731 3419 2920 
Q 3541 3109 3541 3331 
Q 3541 3656 3305 3865 
Q 3069 4075 2559 4075 
L 1109 4075 
L 1109 2559 
z
" transform="scale(0.015625)"/>
       </defs>
       <use xlink:href="#ArialMT-52"/>
       <use xlink:href="#ArialMT-68" transform="translate(72.216797 0)"/>
       <use xlink:href="#ArialMT-2d" transform="translate(127.832031 0)"/>
       <use xlink:href="#ArialMT-48" transform="translate(161.132812 0)"/>
       <use xlink:href="#ArialMT-69" transform="translate(233.349609 0)"/>
       <use xlink:href="#ArialMT-67" transform="translate(255.566406 0)"/>
       <use xlink:href="#ArialMT-68" transform="translate(311.181641 0)"/>
      </g>
     </g>
    </g>
    <g id="xtick_4">
     <g id="line2d_4">
      <g>
       <use xlink:href="#m7b5fbf8fba" x="248.04375" y="142.36" style="stroke: #000000; stroke-width: 0.8"/>
      </g>
     </g>
     <g id="text_4">
      <!-- Combo -->
      <g transform="translate(235.15 155.08625) scale(0.08 -0.08)">
       <defs>
        <path id="ArialMT-6d" d="M 422 0 
L 422 3319 
L 925 3319 
L 925 2853 
Q 1081 3097 1340 3245 
Q 1600 3394 1931 3394 
Q 2300 3394 2536 3241 
Q 2772 3088 2869 2813 
Q 3263 3394 3894 3394 
Q 4388 3394 4653 3120 
Q 4919 2847 4919 2278 
L 4919 0 
L 4359 0 
L 4359 2091 
Q 4359 2428 4304 2576 
Q 4250 2725 4106 2815 
Q 3963 2906 3769 2906 
Q 3419 2906 3187 2673 
Q 2956 2441 2956 1928 
L 2956 0 
L 2394 0 
L 2394 2156 
Q 2394 2531 2256 2718 
Q 2119 2906 1806 2906 
Q 1569 2906 1367 2781 
Q 1166 2656 1075 2415 
Q 984 2175 984 1722 
L 984 0 
L 422 0 
z
" transform="scale(0.015625)"/>
        <path id="ArialMT-62" d="M 941 0 
L 419 0 
L 419 4581 
L 981 4581 
L 981 2947 
Q 1338 3394 1891 3394 
Q 2197 3394 2470 3270 
Q 2744 3147 2920 2923 
Q 3097 2700 3197 2384 
Q 3297 2069 3297 1709 
Q 3297 856 2875 390 
Q 2453 -75 1863 -75 
Q 1275 -75 941 416 
L 941 0 
z
M 934 1684 
Q 934 1088 1097 822 
Q 1363 388 1816 388 
Q 2184 388 2453 708 
Q 2722 1028 2722 1663 
Q 2722 2313 2464 2622 
Q 2206 2931 1841 2931 
Q 1472 2931 1203 2611 
Q 934 2291 934 1684 
z
" transform="scale(0.015625)"/>
       </defs>
       <use xlink:href="#ArialMT-43"/>
       <use xlink:href="#ArialMT-6f" transform="translate(72.216797 0)"/>
       <use xlink:href="#ArialMT-6d" transform="translate(127.832031 0)"/>
       <use xlink:href="#ArialMT-62" transform="translate(211.132812 0)"/>
       <use xlink:href="#ArialMT-6f" transform="translate(266.748047 0)"/>
      </g>
     </g>
    </g>
    <g id="text_5">
     <!-- Condition -->
     <g transform="translate(135.003438 167.927812) scale(0.1 -0.1)">
      <defs>
       <path id="Arial-BoldMT-43" d="M 3397 1684 
L 4294 1400 
Q 4088 650 3608 286 
Q 3128 -78 2391 -78 
Q 1478 -78 890 545 
Q 303 1169 303 2250 
Q 303 3394 893 4026 
Q 1484 4659 2447 4659 
Q 3288 4659 3813 4163 
Q 4125 3869 4281 3319 
L 3366 3100 
Q 3284 3456 3026 3662 
Q 2769 3869 2400 3869 
Q 1891 3869 1573 3503 
Q 1256 3138 1256 2319 
Q 1256 1450 1568 1081 
Q 1881 713 2381 713 
Q 2750 713 3015 947 
Q 3281 1181 3397 1684 
z
" transform="scale(0.015625)"/>
       <path id="Arial-BoldMT-6f" d="M 256 1706 
Q 256 2144 472 2553 
Q 688 2963 1083 3178 
Q 1478 3394 1966 3394 
Q 2719 3394 3200 2905 
Q 3681 2416 3681 1669 
Q 3681 916 3195 420 
Q 2709 -75 1972 -75 
Q 1516 -75 1102 131 
Q 688 338 472 736 
Q 256 1134 256 1706 
z
M 1156 1659 
Q 1156 1166 1390 903 
Q 1625 641 1969 641 
Q 2313 641 2545 903 
Q 2778 1166 2778 1666 
Q 2778 2153 2545 2415 
Q 2313 2678 1969 2678 
Q 1625 2678 1390 2415 
Q 1156 2153 1156 1659 
z
" transform="scale(0.015625)"/>
       <path id="Arial-BoldMT-6e" d="M 3478 0 
L 2600 0 
L 2600 1694 
Q 2600 2231 2544 2389 
Q 2488 2547 2361 2634 
Q 2234 2722 2056 2722 
Q 1828 2722 1647 2597 
Q 1466 2472 1398 2265 
Q 1331 2059 1331 1503 
L 1331 0 
L 453 0 
L 453 3319 
L 1269 3319 
L 1269 2831 
Q 1703 3394 2363 3394 
Q 2653 3394 2893 3289 
Q 3134 3184 3257 3021 
Q 3381 2859 3429 2653 
Q 3478 2447 3478 2063 
L 3478 0 
z
" transform="scale(0.015625)"/>
       <path id="Arial-BoldMT-64" d="M 3503 0 
L 2688 0 
L 2688 488 
Q 2484 203 2207 64 
Q 1931 -75 1650 -75 
Q 1078 -75 670 386 
Q 263 847 263 1672 
Q 263 2516 659 2955 
Q 1056 3394 1663 3394 
Q 2219 3394 2625 2931 
L 2625 4581 
L 3503 4581 
L 3503 0 
z
M 1159 1731 
Q 1159 1200 1306 963 
Q 1519 619 1900 619 
Q 2203 619 2415 876 
Q 2628 1134 2628 1647 
Q 2628 2219 2422 2470 
Q 2216 2722 1894 2722 
Q 1581 2722 1370 2473 
Q 1159 2225 1159 1731 
z
" transform="scale(0.015625)"/>
       <path id="Arial-BoldMT-69" d="M 459 3769 
L 459 4581 
L 1338 4581 
L 1338 3769 
L 459 3769 
z
M 459 0 
L 459 3319 
L 1338 3319 
L 1338 0 
L 459 0 
z
" transform="scale(0.015625)"/>
       <path id="Arial-BoldMT-74" d="M 1981 3319 
L 1981 2619 
L 1381 2619 
L 1381 1281 
Q 1381 875 1398 808 
Q 1416 741 1477 697 
Q 1538 653 1625 653 
Q 1747 653 1978 738 
L 2053 56 
Q 1747 -75 1359 -75 
Q 1122 -75 931 4 
Q 741 84 652 211 
Q 563 338 528 553 
Q 500 706 500 1172 
L 500 2619 
L 97 2619 
L 97 3319 
L 500 3319 
L 500 3978 
L 1381 4491 
L 1381 3319 
L 1981 3319 
z
" transform="scale(0.015625)"/>
      </defs>
      <use xlink:href="#Arial-BoldMT-43"/>
      <use xlink:href="#Arial-BoldMT-6f" transform="translate(72.216797 0)"/>
      <use xlink:href="#Arial-BoldMT-6e" transform="translate(133.300781 0)"/>
      <use xlink:href="#Arial-BoldMT-64" transform="translate(194.384766 0)"/>
      <use xlink:href="#Arial-BoldMT-69" transform="translate(255.46875 0)"/>
      <use xlink:href="#Arial-BoldMT-74" transform="translate(283.251953 0)"/>
      <use xlink:href="#Arial-BoldMT-69" transform="translate(316.552734 0)"/>
      <use xlink:href="#Arial-BoldMT-6f" transform="translate(344.335938 0)"/>
      <use xlink:href="#Arial-BoldMT-6e" transform="translate(405.419922 0)"/>
     </g>
    </g>
   </g>
   <g id="matplotlib.axis_2">
    <g id="ytick_1">
     <g id="line2d_5">
      <defs>
       <path id="m30bee81f84" d="M 0 0 
L -3.5 0 
" style="stroke: #000000; stroke-width: 0.8"/>
      </defs>
      <g>
       <use xlink:href="#m30bee81f84" x="38.704375" y="142.36" style="stroke: #000000; stroke-width: 0.8"/>
      </g>
     </g>
     <g id="text_6">
      <!-- 0.6 -->
      <g transform="translate(20.584375 145.223125) scale(0.08 -0.08)">
       <defs>
        <path id="ArialMT-30" d="M 266 2259 
Q 266 3072 433 3567 
Q 600 4063 929 4331 
Q 1259 4600 1759 4600 
Q 2128 4600 2406 4451 
Q 2684 4303 2865 4023 
Q 3047 3744 3150 3342 
Q 3253 2941 3253 2259 
Q 3253 1453 3087 958 
Q 2922 463 2592 192 
Q 2263 -78 1759 -78 
Q 1097 -78 719 397 
Q 266 969 266 2259 
z
M 844 2259 
Q 844 1131 1108 757 
Q 1372 384 1759 384 
Q 2147 384 2411 759 
Q 2675 1134 2675 2259 
Q 2675 3391 2411 3762 
Q 2147 4134 1753 4134 
Q 1366 4134 1134 3806 
Q 844 3388 844 2259 
z
" transform="scale(0.015625)"/>
        <path id="ArialMT-2e" d="M 581 0 
L 581 641 
L 1222 641 
L 1222 0 
L 581 0 
z
" transform="scale(0.015625)"/>
        <path id="ArialMT-36" d="M 3184 3459 
L 2625 3416 
Q 2550 3747 2413 3897 
Q 2184 4138 1850 4138 
Q 1581 4138 1378 3988 
Q 1113 3794 959 3422 
Q 806 3050 800 2363 
Q 1003 2672 1297 2822 
Q 1591 2972 1913 2972 
Q 2475 2972 2870 2558 
Q 3266 2144 3266 1488 
Q 3266 1056 3080 686 
Q 2894 316 2569 119 
Q 2244 -78 1831 -78 
Q 1128 -78 684 439 
Q 241 956 241 2144 
Q 241 3472 731 4075 
Q 1159 4600 1884 4600 
Q 2425 4600 2770 4297 
Q 3116 3994 3184 3459 
z
M 888 1484 
Q 888 1194 1011 928 
Q 1134 663 1356 523 
Q 1578 384 1822 384 
Q 2178 384 2434 671 
Q 2691 959 2691 1453 
Q 2691 1928 2437 2201 
Q 2184 2475 1800 2475 
Q 1419 2475 1153 2201 
Q 888 1928 888 1484 
z
" transform="scale(0.015625)"/>
       </defs>
       <use xlink:href="#ArialMT-30"/>
       <use xlink:href="#ArialMT-2e" transform="translate(55.615234 0)"/>
       <use xlink:href="#ArialMT-36" transform="translate(83.398438 0)"/>
      </g>
     </g>
    </g>
    <g id="ytick_2">
     <g id="line2d_6">
      <g>
       <use xlink:href="#m30bee81f84" x="38.704375" y="110.179048" style="stroke: #000000; stroke-width: 0.8"/>
      </g>
     </g>
     <g id="text_7">
      <!-- 0.7 -->
      <g transform="translate(20.584375 113.042173) scale(0.08 -0.08)">
       <defs>
        <path id="ArialMT-37" d="M 303 3981 
L 303 4522 
L 3269 4522 
L 3269 4084 
Q 2831 3619 2401 2847 
Q 1972 2075 1738 1259 
Q 1569 684 1522 0 
L 944 0 
Q 953 541 1156 1306 
Q 1359 2072 1739 2783 
Q 2119 3494 2547 3981 
L 303 3981 
z
" transform="scale(0.015625)"/>
       </defs>
       <use xlink:href="#ArialMT-30"/>
       <use xlink:href="#ArialMT-2e" transform="translate(55.615234 0)"/>
       <use xlink:href="#ArialMT-37" transform="translate(83.398438 0)"/>
      </g>
     </g>
    </g>
    <g id="ytick_3">
     <g id="line2d_7">
      <g>
       <use xlink:href="#m30bee81f84" x="38.704375" y="77.998095" style="stroke: #000000; stroke-width: 0.8"/>
      </g>
     </g>
     <g id="text_8">
      <!-- 0.8 -->
      <g transform="translate(20.584375 80.86122) scale(0.08 -0.08)">
       <defs>
        <path id="ArialMT-38" d="M 1131 2484 
Q 781 2613 612 2850 
Q 444 3088 444 3419 
Q 444 3919 803 4259 
Q 1163 4600 1759 4600 
Q 2359 4600 2725 4251 
Q 3091 3903 3091 3403 
Q 3091 3084 2923 2848 
Q 2756 2613 2416 2484 
Q 2838 2347 3058 2040 
Q 3278 1734 3278 1309 
Q 3278 722 2862 322 
Q 2447 -78 1769 -78 
Q 1091 -78 675 323 
Q 259 725 259 1325 
Q 259 1772 486 2073 
Q 713 2375 1131 2484 
z
M 1019 3438 
Q 1019 3113 1228 2906 
Q 1438 2700 1772 2700 
Q 2097 2700 2305 2904 
Q 2513 3109 2513 3406 
Q 2513 3716 2298 3927 
Q 2084 4138 1766 4138 
Q 1444 4138 1231 3931 
Q 1019 3725 1019 3438 
z
M 838 1322 
Q 838 1081 952 856 
Q 1066 631 1291 507 
Q 1516 384 1775 384 
Q 2178 384 2440 643 
Q 2703 903 2703 1303 
Q 2703 1709 2433 1975 
Q 2163 2241 1756 2241 
Q 1359 2241 1098 1978 
Q 838 1716 838 1322 
z
" transform="scale(0.015625)"/>
       </defs>
       <use xlink:href="#ArialMT-30"/>
       <use xlink:href="#ArialMT-2e" transform="translate(55.615234 0)"/>
       <use xlink:href="#ArialMT-38" transform="translate(83.398438 0)"/>
      </g>
     </g>
    </g>
    <g id="ytick_4">
     <g id="line2d_8">
      <g>
       <use xlink:href="#m30bee81f84" x="38.704375" y="45.817143" style="stroke: #000000; stroke-width: 0.8"/>
      </g>
     </g>
     <g id="text_9">
      <!-- 0.9 -->
      <g transform="translate(20.584375 48.680268) scale(0.08 -0.08)">
       <defs>
        <path id="ArialMT-39" d="M 350 1059 
L 891 1109 
Q 959 728 1153 556 
Q 1347 384 1650 384 
Q 1909 384 2104 503 
Q 2300 622 2425 820 
Q 2550 1019 2634 1356 
Q 2719 1694 2719 2044 
Q 2719 2081 2716 2156 
Q 2547 1888 2255 1720 
Q 1963 1553 1622 1553 
Q 1053 1553 659 1965 
Q 266 2378 266 3053 
Q 266 3750 677 4175 
Q 1088 4600 1706 4600 
Q 2153 4600 2523 4359 
Q 2894 4119 3086 3673 
Q 3278 3228 3278 2384 
Q 3278 1506 3087 986 
Q 2897 466 2520 194 
Q 2144 -78 1638 -78 
Q 1100 -78 759 220 
Q 419 519 350 1059 
z
M 2653 3081 
Q 2653 3566 2395 3850 
Q 2138 4134 1775 4134 
Q 1400 4134 1122 3828 
Q 844 3522 844 3034 
Q 844 2597 1108 2323 
Q 1372 2050 1759 2050 
Q 2150 2050 2401 2323 
Q 2653 2597 2653 3081 
z
" transform="scale(0.015625)"/>
       </defs>
       <use xlink:href="#ArialMT-30"/>
       <use xlink:href="#ArialMT-2e" transform="translate(55.615234 0)"/>
       <use xlink:href="#ArialMT-39" transform="translate(83.398438 0)"/>
      </g>
     </g>
    </g>
    <g id="ytick_5">
     <g id="line2d_9">
      <g>
       <use xlink:href="#m30bee81f84" x="38.704375" y="13.63619" style="stroke: #000000; stroke-width: 0.8"/>
      </g>
     </g>
     <g id="text_10">
      <!-- 1.0 -->
      <g transform="translate(20.584375 16.499315) scale(0.08 -0.08)">
       <defs>
        <path id="ArialMT-31" d="M 2384 0 
L 1822 0 
L 1822 3584 
Q 1619 3391 1289 3197 
Q 959 3003 697 2906 
L 697 3450 
Q 1169 3672 1522 3987 
Q 1875 4303 2022 4600 
L 2384 4600 
L 2384 0 
z
" transform="scale(0.015625)"/>
       </defs>
       <use xlink:href="#ArialMT-31"/>
       <use xlink:href="#ArialMT-2e" transform="translate(55.615234 0)"/>
       <use xlink:href="#ArialMT-30" transform="translate(83.398438 0)"/>
      </g>
     </g>
    </g>
    <g id="text_11">
     <!-- P(regeneration) -->
     <g transform="translate(14.479688 111.728437) rotate(-90) scale(0.1 -0.1)">
      <defs>
       <path id="Arial-BoldMT-50" d="M 466 0 
L 466 4581 
L 1950 4581 
Q 2794 4581 3050 4513 
Q 3444 4409 3709 4064 
Q 3975 3719 3975 3172 
Q 3975 2750 3822 2462 
Q 3669 2175 3433 2011 
Q 3197 1847 2953 1794 
Q 2622 1728 1994 1728 
L 1391 1728 
L 1391 0 
L 466 0 
z
M 1391 3806 
L 1391 2506 
L 1897 2506 
Q 2444 2506 2628 2578 
Q 2813 2650 2917 2803 
Q 3022 2956 3022 3159 
Q 3022 3409 2875 3571 
Q 2728 3734 2503 3775 
Q 2338 3806 1838 3806 
L 1391 3806 
z
" transform="scale(0.015625)"/>
       <path id="Arial-BoldMT-28" d="M 1916 -1347 
L 1313 -1347 
Q 834 -625 584 153 
Q 334 931 334 1659 
Q 334 2563 644 3369 
Q 913 4069 1325 4659 
L 1925 4659 
Q 1497 3713 1336 3048 
Q 1175 2384 1175 1641 
Q 1175 1128 1270 590 
Q 1366 53 1531 -431 
Q 1641 -750 1916 -1347 
z
" transform="scale(0.015625)"/>
       <path id="Arial-BoldMT-72" d="M 1300 0 
L 422 0 
L 422 3319 
L 1238 3319 
L 1238 2847 
Q 1447 3181 1614 3287 
Q 1781 3394 1994 3394 
Q 2294 3394 2572 3228 
L 2300 2463 
Q 2078 2606 1888 2606 
Q 1703 2606 1575 2504 
Q 1447 2403 1373 2137 
Q 1300 1872 1300 1025 
L 1300 0 
z
" transform="scale(0.015625)"/>
       <path id="Arial-BoldMT-65" d="M 2381 1056 
L 3256 909 
Q 3088 428 2723 176 
Q 2359 -75 1813 -75 
Q 947 -75 531 491 
Q 203 944 203 1634 
Q 203 2459 634 2926 
Q 1066 3394 1725 3394 
Q 2466 3394 2894 2905 
Q 3322 2416 3303 1406 
L 1103 1406 
Q 1113 1016 1316 798 
Q 1519 581 1822 581 
Q 2028 581 2168 693 
Q 2309 806 2381 1056 
z
M 2431 1944 
Q 2422 2325 2234 2523 
Q 2047 2722 1778 2722 
Q 1491 2722 1303 2513 
Q 1116 2303 1119 1944 
L 2431 1944 
z
" transform="scale(0.015625)"/>
       <path id="Arial-BoldMT-67" d="M 378 -219 
L 1381 -341 
Q 1406 -516 1497 -581 
Q 1622 -675 1891 -675 
Q 2234 -675 2406 -572 
Q 2522 -503 2581 -350 
Q 2622 -241 2622 53 
L 2622 538 
Q 2228 0 1628 0 
Q 959 0 569 566 
Q 263 1013 263 1678 
Q 263 2513 664 2953 
Q 1066 3394 1663 3394 
Q 2278 3394 2678 2853 
L 2678 3319 
L 3500 3319 
L 3500 341 
Q 3500 -247 3403 -537 
Q 3306 -828 3131 -993 
Q 2956 -1159 2664 -1253 
Q 2372 -1347 1925 -1347 
Q 1081 -1347 728 -1058 
Q 375 -769 375 -325 
Q 375 -281 378 -219 
z
M 1163 1728 
Q 1163 1200 1367 954 
Q 1572 709 1872 709 
Q 2194 709 2416 961 
Q 2638 1213 2638 1706 
Q 2638 2222 2425 2472 
Q 2213 2722 1888 2722 
Q 1572 2722 1367 2476 
Q 1163 2231 1163 1728 
z
" transform="scale(0.015625)"/>
       <path id="Arial-BoldMT-61" d="M 1116 2306 
L 319 2450 
Q 453 2931 781 3162 
Q 1109 3394 1756 3394 
Q 2344 3394 2631 3255 
Q 2919 3116 3036 2902 
Q 3153 2688 3153 2116 
L 3144 1091 
Q 3144 653 3186 445 
Q 3228 238 3344 0 
L 2475 0 
Q 2441 88 2391 259 
Q 2369 338 2359 363 
Q 2134 144 1878 34 
Q 1622 -75 1331 -75 
Q 819 -75 523 203 
Q 228 481 228 906 
Q 228 1188 362 1408 
Q 497 1628 739 1745 
Q 981 1863 1438 1950 
Q 2053 2066 2291 2166 
L 2291 2253 
Q 2291 2506 2166 2614 
Q 2041 2722 1694 2722 
Q 1459 2722 1328 2630 
Q 1197 2538 1116 2306 
z
M 2291 1594 
Q 2122 1538 1756 1459 
Q 1391 1381 1278 1306 
Q 1106 1184 1106 997 
Q 1106 813 1243 678 
Q 1381 544 1594 544 
Q 1831 544 2047 700 
Q 2206 819 2256 991 
Q 2291 1103 2291 1419 
L 2291 1594 
z
" transform="scale(0.015625)"/>
       <path id="Arial-BoldMT-29" d="M 216 -1347 
Q 475 -791 581 -494 
Q 688 -197 778 190 
Q 869 578 912 926 
Q 956 1275 956 1641 
Q 956 2384 797 3048 
Q 638 3713 209 4659 
L 806 4659 
Q 1278 3988 1539 3234 
Q 1800 2481 1800 1706 
Q 1800 1053 1594 306 
Q 1359 -531 822 -1347 
L 216 -1347 
z
" transform="scale(0.015625)"/>
      </defs>
      <use xlink:href="#Arial-BoldMT-50"/>
      <use xlink:href="#Arial-BoldMT-28" transform="translate(66.699219 0)"/>
      <use xlink:href="#Arial-BoldMT-72" transform="translate(100 0)"/>
      <use xlink:href="#Arial-BoldMT-65" transform="translate(138.916016 0)"/>
      <use xlink:href="#Arial-BoldMT-67" transform="translate(194.53125 0)"/>
      <use xlink:href="#Arial-BoldMT-65" transform="translate(255.615234 0)"/>
      <use xlink:href="#Arial-BoldMT-6e" transform="translate(311.230469 0)"/>
      <use xlink:href="#Arial-BoldMT-65" transform="translate(372.314453 0)"/>
      <use xlink:href="#Arial-BoldMT-72" transform="translate(427.929688 0)"/>
      <use xlink:href="#Arial-BoldMT-61" transform="translate(466.845703 0)"/>
      <use xlink:href="#Arial-BoldMT-74" transform="translate(522.460938 0)"/>
      <use xlink:href="#Arial-BoldMT-69" transform="translate(555.761719 0)"/>
      <use xlink:href="#Arial-BoldMT-6f" transform="translate(583.544922 0)"/>
      <use xlink:href="#Arial-BoldMT-6e" transform="translate(644.628906 0)"/>
      <use xlink:href="#Arial-BoldMT-29" transform="translate(705.712891 0)"/>
     </g>
    </g>
   </g>
   <g id="LineCollection_1">
    <path d="M 59.638313 16.398061 
L 77.581688 16.398061 
" clip-path="url(#p5716f470e5)" style="fill: none; stroke: #1f77b4; stroke-width: 1.5"/>
    <path d="M 119.449563 60.986829 
L 137.392938 60.986829 
" clip-path="url(#p5716f470e5)" style="fill: none; stroke: #1f77b4; stroke-width: 1.5"/>
    <path d="M 179.260813 23.297142 
L 197.204188 23.297142 
" clip-path="url(#p5716f470e5)" style="fill: none; stroke: #1f77b4; stroke-width: 1.5"/>
    <path d="M 239.072063 125.264608 
L 257.015438 125.264608 
" clip-path="url(#p5716f470e5)" style="fill: none; stroke: #1f77b4; stroke-width: 1.5"/>
   </g>
   <g id="LineCollection_2">
    <path d="M 59.638313 17.239833 
L 77.581688 17.239833 
" clip-path="url(#p5716f470e5)" style="fill: none; stroke: #1f77b4; stroke-width: 1.5"/>
    <path d="M 119.449563 64.8502 
L 137.392938 64.8502 
" clip-path="url(#p5716f470e5)" style="fill: none; stroke: #1f77b4; stroke-width: 1.5"/>
    <path d="M 179.260813 25.300734 
L 197.204188 25.300734 
" clip-path="url(#p5716f470e5)" style="fill: none; stroke: #1f77b4; stroke-width: 1.5"/>
    <path d="M 239.072063 132.806838 
L 257.015438 132.806838 
" clip-path="url(#p5716f470e5)" style="fill: none; stroke: #1f77b4; stroke-width: 1.5"/>
   </g>
   <g id="LineCollection_3">
    <path d="M 68.61 17.239833 
L 68.61 16.398061 
" clip-path="url(#p5716f470e5)" style="fill: none; stroke: #1f77b4; stroke-width: 1.5"/>
    <path d="M 128.42125 64.8502 
L 128.42125 60.986829 
" clip-path="url(#p5716f470e5)" style="fill: none; stroke: #1f77b4; stroke-width: 1.5"/>
    <path d="M 188.2325 25.300734 
L 188.2325 23.297142 
" clip-path="url(#p5716f470e5)" style="fill: none; stroke: #1f77b4; stroke-width: 1.5"/>
    <path d="M 248.04375 132.806838 
L 248.04375 125.264608 
" clip-path="url(#p5716f470e5)" style="fill: none; stroke: #1f77b4; stroke-width: 1.5"/>
   </g>
   <g id="patch_3">
    <path d="M 59.638313 16.969077 
L 77.581688 16.969077 
L 77.581688 16.517405 
L 59.638313 16.517405 
L 59.638313 16.969077 
z
" clip-path="url(#p5716f470e5)" style="fill: #ffffff; stroke: #000000; stroke-linejoin: miter"/>
   </g>
   <g id="line2d_10">
    <path d="M 68.61 16.969077 
L 68.61 17.239833 
" clip-path="url(#p5716f470e5)" style="fill: none; stroke: #000000; stroke-linecap: square"/>
   </g>
   <g id="line2d_11">
    <path d="M 68.61 16.517405 
L 68.61 16.398061 
" clip-path="url(#p5716f470e5)" style="fill: none; stroke: #000000; stroke-linecap: square"/>
   </g>
   <g id="line2d_12">
    <path d="M 64.124156 17.239833 
L 73.095844 17.239833 
" clip-path="url(#p5716f470e5)" style="fill: none; stroke: #000000; stroke-linecap: square"/>
   </g>
   <g id="line2d_13">
    <path d="M 64.124156 16.398061 
L 73.095844 16.398061 
" clip-path="url(#p5716f470e5)" style="fill: none; stroke: #000000; stroke-linecap: square"/>
   </g>
   <g id="line2d_14"/>
   <g id="patch_4">
    <path d="M 119.449563 63.456053 
L 137.392938 63.456053 
L 137.392938 61.467542 
L 119.449563 61.467542 
L 119.449563 63.456053 
z
" clip-path="url(#p5716f470e5)" style="fill: #ffffff; stroke: #000000; stroke-linejoin: miter"/>
   </g>
   <g id="line2d_15">
    <path d="M 128.42125 63.456053 
L 128.42125 64.8502 
" clip-path="url(#p5716f470e5)" style="fill: none; stroke: #000000; stroke-linecap: square"/>
   </g>
   <g id="line2d_16">
    <path d="M 128.42125 61.467542 
L 128.42125 60.986829 
" clip-path="url(#p5716f470e5)" style="fill: none; stroke: #000000; stroke-linecap: square"/>
   </g>
   <g id="line2d_17">
    <path d="M 123.935406 64.8502 
L 132.907094 64.8502 
" clip-path="url(#p5716f470e5)" style="fill: none; stroke: #000000; stroke-linecap: square"/>
   </g>
   <g id="line2d_18">
    <path d="M 123.935406 60.986829 
L 132.907094 60.986829 
" clip-path="url(#p5716f470e5)" style="fill: none; stroke: #000000; stroke-linecap: square"/>
   </g>
   <g id="line2d_19"/>
   <g id="patch_5">
    <path d="M 179.260813 24.959437 
L 197.204188 24.959437 
L 197.204188 23.980377 
L 179.260813 23.980377 
L 179.260813 24.959437 
z
" clip-path="url(#p5716f470e5)" style="fill: #ffffff; stroke: #000000; stroke-linejoin: miter"/>
   </g>
   <g id="line2d_20">
    <path d="M 188.2325 24.959437 
L 188.2325 25.300734 
" clip-path="url(#p5716f470e5)" style="fill: none; stroke: #000000; stroke-linecap: square"/>
   </g>
   <g id="line2d_21">
    <path d="M 188.2325 23.980377 
L 188.2325 23.297142 
" clip-path="url(#p5716f470e5)" style="fill: none; stroke: #000000; stroke-linecap: square"/>
   </g>
   <g id="line2d_22">
    <path d="M 183.746656 25.300734 
L 192.718344 25.300734 
" clip-path="url(#p5716f470e5)" style="fill: none; stroke: #000000; stroke-linecap: square"/>
   </g>
   <g id="line2d_23">
    <path d="M 183.746656 23.297142 
L 192.718344 23.297142 
" clip-path="url(#p5716f470e5)" style="fill: none; stroke: #000000; stroke-linecap: square"/>
   </g>
   <g id="line2d_24"/>
   <g id="patch_6">
    <path d="M 239.072063 128.686511 
L 257.015438 128.686511 
L 257.015438 126.255363 
L 239.072063 126.255363 
L 239.072063 128.686511 
z
" clip-path="url(#p5716f470e5)" style="fill: #ffffff; stroke: #000000; stroke-linejoin: miter"/>
   </g>
   <g id="line2d_25">
    <path d="M 248.04375 128.686511 
L 248.04375 128.733239 
" clip-path="url(#p5716f470e5)" style="fill: none; stroke: #000000; stroke-linecap: square"/>
   </g>
   <g id="line2d_26">
    <path d="M 248.04375 126.255363 
L 248.04375 125.264608 
" clip-path="url(#p5716f470e5)" style="fill: none; stroke: #000000; stroke-linecap: square"/>
   </g>
   <g id="line2d_27">
    <path d="M 243.557906 128.733239 
L 252.529594 128.733239 
" clip-path="url(#p5716f470e5)" style="fill: none; stroke: #000000; stroke-linecap: square"/>
   </g>
   <g id="line2d_28">
    <path d="M 243.557906 125.264608 
L 252.529594 125.264608 
" clip-path="url(#p5716f470e5)" style="fill: none; stroke: #000000; stroke-linecap: square"/>
   </g>
   <g id="line2d_29">
    <defs>
     <path id="mc0e48e2399" d="M 0 1.5 
C 0.397805 1.5 0.77937 1.341951 1.06066 1.06066 
C 1.341951 0.77937 1.5 0.397805 1.5 0 
C 1.5 -0.397805 1.341951 -0.77937 1.06066 -1.06066 
C 0.77937 -1.341951 0.397805 -1.5 0 -1.5 
C -0.397805 -1.5 -0.77937 -1.341951 -1.06066 -1.06066 
C -1.341951 -0.77937 -1.5 -0.397805 -1.5 0 
C -1.5 0.397805 -1.341951 0.77937 -1.06066 1.06066 
C -0.77937 1.341951 -0.397805 1.5 0 1.5 
z
" style="stroke: #000000"/>
    </defs>
    <g clip-path="url(#p5716f470e5)">
     <use xlink:href="#mc0e48e2399" x="248.04375" y="132.806838" style="fill: #808080; stroke: #000000"/>
    </g>
   </g>
   <g id="line2d_30">
    <path d="M 47.676063 16.751619 
L 89.543938 16.751619 
" clip-path="url(#p5716f470e5)" style="fill: none; stroke: #ff0000; stroke-opacity: 0.8; stroke-width: 2; stroke-linecap: square"/>
   </g>
   <g id="line2d_31">
    <path d="M 107.487313 62.468008 
L 149.355188 62.468008 
" clip-path="url(#p5716f470e5)" style="fill: none; stroke: #ff0000; stroke-opacity: 0.8; stroke-width: 2; stroke-linecap: square"/>
   </g>
   <g id="line2d_32">
    <path d="M 167.298563 24.512326 
L 209.166438 24.512326 
" clip-path="url(#p5716f470e5)" style="fill: none; stroke: #ff0000; stroke-opacity: 0.8; stroke-width: 2; stroke-linecap: square"/>
   </g>
   <g id="line2d_33">
    <path d="M 227.109813 127.318418 
L 268.977688 127.318418 
" clip-path="url(#p5716f470e5)" style="fill: none; stroke: #ff0000; stroke-opacity: 0.8; stroke-width: 2; stroke-linecap: square"/>
   </g>
   <g id="line2d_34">
    <path d="M 59.638313 16.801425 
L 77.581688 16.801425 
" clip-path="url(#p5716f470e5)" style="fill: none; stroke: #000000; stroke-width: 1.5"/>
   </g>
   <g id="line2d_35">
    <path d="M 119.449563 61.738157 
L 137.392938 61.738157 
" clip-path="url(#p5716f470e5)" style="fill: none; stroke: #000000; stroke-width: 1.5"/>
   </g>
   <g id="line2d_36">
    <path d="M 179.260813 24.734818 
L 197.204188 24.734818 
" clip-path="url(#p5716f470e5)" style="fill: none; stroke: #000000; stroke-width: 1.5"/>
   </g>
   <g id="line2d_37">
    <path d="M 239.072063 127.825039 
L 257.015438 127.825039 
" clip-path="url(#p5716f470e5)" style="fill: none; stroke: #000000; stroke-width: 1.5"/>
   </g>
   <g id="patch_7">
    <path d="M 38.704375 142.36 
L 38.704375 7.2 
" style="fill: none; stroke: #000000; stroke-width: 0.8; stroke-linejoin: miter; stroke-linecap: square"/>
   </g>
   <g id="patch_8">
    <path d="M 38.704375 142.36 
L 277.949375 142.36 
" style="fill: none; stroke: #000000; stroke-width: 0.8; stroke-linejoin: miter; stroke-linecap: square"/>
   </g>
   <g id="text_12">
    <!-- 7 mirrors -->
    <g style="fill: #808080" transform="translate(43.489275 14.197887) scale(0.06 -0.06)">
     <defs>
      <path id="Arial-ItalicMT-37" d="M 928 0 
Q 1003 463 1247 1113 
Q 1538 1897 2009 2670 
Q 2481 3444 3059 4000 
L 775 4000 
L 884 4519 
L 3809 4519 
L 3703 4000 
Q 2959 3347 2403 2316 
Q 1756 1125 1519 0 
L 928 0 
z
" transform="scale(0.015625)"/>
      <path id="Arial-ItalicMT-20" transform="scale(0.015625)"/>
      <path id="Arial-ItalicMT-6d" d="M 209 0 
L 903 3319 
L 1469 3319 
L 1353 2772 
Q 1669 3125 1917 3259 
Q 2166 3394 2456 3394 
Q 2766 3394 2973 3230 
Q 3181 3066 3247 2772 
Q 3500 3084 3779 3239 
Q 4059 3394 4369 3394 
Q 4784 3394 4992 3197 
Q 5200 3000 5200 2644 
Q 5200 2491 5128 2138 
L 4681 0 
L 4116 0 
L 4572 2194 
Q 4631 2463 4631 2578 
Q 4631 2741 4528 2834 
Q 4425 2928 4238 2928 
Q 3984 2928 3721 2775 
Q 3459 2622 3314 2373 
Q 3169 2125 3059 1609 
L 2722 0 
L 2156 0 
L 2625 2241 
Q 2675 2469 2675 2566 
Q 2675 2728 2573 2828 
Q 2472 2928 2309 2928 
Q 2069 2928 1805 2775 
Q 1541 2622 1375 2348 
Q 1209 2075 1103 1569 
L 775 0 
L 209 0 
z
" transform="scale(0.015625)"/>
      <path id="Arial-ItalicMT-69" d="M 1016 3941 
L 1150 4581 
L 1713 4581 
L 1578 3941 
L 1016 3941 
z
M 191 0 
L 884 3319 
L 1450 3319 
L 756 0 
L 191 0 
z
" transform="scale(0.015625)"/>
      <path id="Arial-ItalicMT-72" d="M 213 0 
L 906 3319 
L 1406 3319 
L 1266 2641 
Q 1522 3025 1767 3209 
Q 2013 3394 2269 3394 
Q 2438 3394 2684 3272 
L 2453 2747 
Q 2306 2853 2131 2853 
Q 1834 2853 1521 2522 
Q 1209 2191 1031 1331 
L 750 0 
L 213 0 
z
" transform="scale(0.015625)"/>
      <path id="Arial-ItalicMT-6f" d="M 313 1259 
Q 313 2231 884 2869 
Q 1356 3394 2122 3394 
Q 2722 3394 3089 3019 
Q 3456 2644 3456 2006 
Q 3456 1434 3225 942 
Q 2994 450 2567 187 
Q 2141 -75 1669 -75 
Q 1281 -75 964 90 
Q 647 256 480 559 
Q 313 863 313 1259 
z
M 878 1316 
Q 878 847 1103 605 
Q 1328 363 1675 363 
Q 1856 363 2034 436 
Q 2213 509 2366 659 
Q 2519 809 2626 1001 
Q 2734 1194 2800 1416 
Q 2897 1725 2897 2009 
Q 2897 2459 2670 2707 
Q 2444 2956 2100 2956 
Q 1834 2956 1615 2829 
Q 1397 2703 1220 2459 
Q 1044 2216 961 1892 
Q 878 1569 878 1316 
z
" transform="scale(0.015625)"/>
      <path id="Arial-ItalicMT-73" d="M 266 1134 
L 831 1169 
Q 831 925 906 753 
Q 981 581 1182 472 
Q 1384 363 1653 363 
Q 2028 363 2215 513 
Q 2403 663 2403 866 
Q 2403 1013 2291 1144 
Q 2175 1275 1726 1467 
Q 1278 1659 1153 1738 
Q 944 1866 837 2039 
Q 731 2213 731 2438 
Q 731 2831 1043 3112 
Q 1356 3394 1919 3394 
Q 2544 3394 2870 3105 
Q 3197 2816 3209 2344 
L 2656 2306 
Q 2644 2606 2444 2781 
Q 2244 2956 1878 2956 
Q 1584 2956 1421 2822 
Q 1259 2688 1259 2531 
Q 1259 2375 1400 2256 
Q 1494 2175 1884 2006 
Q 2534 1725 2703 1563 
Q 2972 1303 2972 931 
Q 2972 684 2820 446 
Q 2669 209 2358 67 
Q 2047 -75 1625 -75 
Q 1050 -75 647 209 
Q 244 494 266 1134 
z
" transform="scale(0.015625)"/>
     </defs>
     <use xlink:href="#Arial-ItalicMT-37"/>
     <use xlink:href="#Arial-ItalicMT-20" transform="translate(55.615234 0)"/>
     <use xlink:href="#Arial-ItalicMT-6d" transform="translate(83.398438 0)"/>
     <use xlink:href="#Arial-ItalicMT-69" transform="translate(166.699219 0)"/>
     <use xlink:href="#Arial-ItalicMT-72" transform="translate(188.916016 0)"/>
     <use xlink:href="#Arial-ItalicMT-72" transform="translate(222.216797 0)"/>
     <use xlink:href="#Arial-ItalicMT-6f" transform="translate(255.517578 0)"/>
     <use xlink:href="#Arial-ItalicMT-72" transform="translate(311.132812 0)"/>
     <use xlink:href="#Arial-ItalicMT-73" transform="translate(344.433594 0)"/>
    </g>
    <!-- (1.7B-671B params) -->
    <g style="fill: #808080" transform="translate(43.489275 20.631762) scale(0.06 -0.06)">
     <defs>
      <path id="Arial-ItalicMT-28" d="M 1031 -1347 
Q 541 -272 541 863 
Q 541 1619 739 2270 
Q 938 2922 1344 3559 
Q 1613 3984 2203 4659 
L 2644 4659 
Q 2278 4269 1870 3559 
Q 1463 2850 1278 2165 
Q 1094 1481 1094 791 
Q 1094 -241 1453 -1347 
L 1031 -1347 
z
" transform="scale(0.015625)"/>
      <path id="Arial-ItalicMT-31" d="M 1541 0 
L 2266 3459 
Q 1797 3091 947 2869 
L 1053 3381 
Q 1475 3550 1886 3822 
Q 2297 4094 2503 4297 
Q 2628 4422 2741 4600 
L 3069 4600 
L 2109 0 
L 1541 0 
z
" transform="scale(0.015625)"/>
      <path id="Arial-ItalicMT-2e" d="M 369 0 
L 503 641 
L 1144 641 
L 1006 0 
L 369 0 
z
" transform="scale(0.015625)"/>
      <path id="Arial-ItalicMT-42" d="M 278 0 
L 1238 4581 
L 2656 4581 
Q 3044 4581 3231 4550 
Q 3538 4497 3748 4364 
Q 3959 4231 4075 4001 
Q 4191 3772 4191 3494 
Q 4191 3116 3983 2828 
Q 3775 2541 3347 2391 
Q 3719 2269 3903 2023 
Q 4088 1778 4088 1450 
Q 4088 1072 3870 725 
Q 3653 378 3295 189 
Q 2938 0 2497 0 
L 278 0 
z
M 1441 2625 
L 2369 2625 
Q 3034 2625 3326 2837 
Q 3619 3050 3619 3456 
Q 3619 3650 3528 3790 
Q 3438 3931 3286 3995 
Q 3134 4059 2716 4059 
L 1741 4059 
L 1441 2625 
z
M 1000 519 
L 2044 519 
Q 2459 519 2603 547 
Q 2894 597 3075 717 
Q 3256 838 3359 1034 
Q 3463 1231 3463 1447 
Q 3463 1769 3261 1936 
Q 3059 2103 2494 2103 
L 1331 2103 
L 1000 519 
z
" transform="scale(0.015625)"/>
      <path id="Arial-ItalicMT-2d" d="M 297 1375 
L 416 1941 
L 2141 1941 
L 2025 1375 
L 297 1375 
z
" transform="scale(0.015625)"/>
      <path id="Arial-ItalicMT-36" d="M 1288 2656 
Q 1525 2853 1761 2951 
Q 1997 3050 2228 3050 
Q 2750 3050 3090 2694 
Q 3431 2338 3431 1734 
Q 3431 956 2925 400 
Q 2488 -78 1863 -78 
Q 1294 -78 914 339 
Q 534 756 534 1528 
Q 534 2219 778 2956 
Q 966 3522 1242 3889 
Q 1519 4256 1830 4428 
Q 2141 4600 2531 4600 
Q 3000 4600 3297 4308 
Q 3594 4016 3634 3472 
L 3109 3422 
Q 3066 3794 2898 3959 
Q 2731 4125 2491 4125 
Q 2238 4125 1981 3928 
Q 1725 3731 1540 3345 
Q 1356 2959 1288 2656 
z
M 1091 1288 
Q 1091 900 1331 636 
Q 1572 372 1875 372 
Q 2088 372 2325 533 
Q 2563 694 2728 1022 
Q 2894 1350 2894 1675 
Q 2894 2094 2664 2345 
Q 2434 2597 2109 2597 
Q 1734 2597 1412 2230 
Q 1091 1863 1091 1288 
z
" transform="scale(0.015625)"/>
      <path id="Arial-ItalicMT-70" d="M -66 -1272 
L 894 3319 
L 1416 3319 
L 1319 2856 
Q 1609 3159 1839 3276 
Q 2069 3394 2325 3394 
Q 2800 3394 3112 3048 
Q 3425 2703 3425 2059 
Q 3425 1541 3253 1114 
Q 3081 688 2831 428 
Q 2581 169 2325 47 
Q 2069 -75 1800 -75 
Q 1203 -75 875 531 
L 500 -1272 
L -66 -1272 
z
M 1053 1356 
Q 1053 984 1106 841 
Q 1184 638 1362 513 
Q 1541 388 1775 388 
Q 2263 388 2563 936 
Q 2863 1484 2863 2056 
Q 2863 2478 2661 2708 
Q 2459 2938 2159 2938 
Q 1944 2938 1759 2823 
Q 1575 2709 1417 2482 
Q 1259 2256 1156 1928 
Q 1053 1600 1053 1356 
z
" transform="scale(0.015625)"/>
      <path id="Arial-ItalicMT-61" d="M 2450 413 
Q 2156 159 1884 42 
Q 1613 -75 1303 -75 
Q 844 -75 562 195 
Q 281 466 281 888 
Q 281 1166 407 1380 
Q 534 1594 743 1723 
Q 953 1853 1256 1909 
Q 1447 1947 1980 1969 
Q 2513 1991 2744 2081 
Q 2809 2313 2809 2466 
Q 2809 2663 2666 2775 
Q 2469 2931 2091 2931 
Q 1734 2931 1507 2773 
Q 1281 2616 1178 2325 
L 606 2375 
Q 781 2869 1161 3131 
Q 1541 3394 2119 3394 
Q 2734 3394 3094 3100 
Q 3369 2881 3369 2531 
Q 3369 2266 3291 1916 
L 3106 1091 
Q 3019 697 3019 450 
Q 3019 294 3088 0 
L 2516 0 
Q 2469 163 2450 413 
z
M 2659 1681 
Q 2541 1634 2405 1609 
Q 2269 1584 1950 1556 
Q 1456 1513 1253 1445 
Q 1050 1378 947 1231 
Q 844 1084 844 906 
Q 844 669 1008 516 
Q 1172 363 1475 363 
Q 1756 363 2015 511 
Q 2275 659 2425 925 
Q 2575 1191 2659 1681 
z
" transform="scale(0.015625)"/>
      <path id="Arial-ItalicMT-29" d="M 1269 4659 
Q 1763 3584 1763 2453 
Q 1763 1694 1564 1044 
Q 1366 394 959 -247 
Q 688 -672 100 -1347 
L -341 -1347 
Q 22 -953 431 -243 
Q 841 466 1023 1148 
Q 1206 1831 1206 2525 
Q 1206 3556 847 4659 
L 1269 4659 
z
" transform="scale(0.015625)"/>
     </defs>
     <use xlink:href="#Arial-ItalicMT-28"/>
     <use xlink:href="#Arial-ItalicMT-31" transform="translate(33.300781 0)"/>
     <use xlink:href="#Arial-ItalicMT-2e" transform="translate(88.916016 0)"/>
     <use xlink:href="#Arial-ItalicMT-37" transform="translate(116.699219 0)"/>
     <use xlink:href="#Arial-ItalicMT-42" transform="translate(172.314453 0)"/>
     <use xlink:href="#Arial-ItalicMT-2d" transform="translate(239.013672 0)"/>
     <use xlink:href="#Arial-ItalicMT-36" transform="translate(272.314453 0)"/>
     <use xlink:href="#Arial-ItalicMT-37" transform="translate(327.929688 0)"/>
     <use xlink:href="#Arial-ItalicMT-31" transform="translate(383.544922 0)"/>
     <use xlink:href="#Arial-ItalicMT-42" transform="translate(439.160156 0)"/>
     <use xlink:href="#Arial-ItalicMT-20" transform="translate(505.859375 0)"/>
     <use xlink:href="#Arial-ItalicMT-70" transform="translate(533.642578 0)"/>
     <use xlink:href="#Arial-ItalicMT-61" transform="translate(589.257812 0)"/>
     <use xlink:href="#Arial-ItalicMT-72" transform="translate(644.873047 0)"/>
     <use xlink:href="#Arial-ItalicMT-61" transform="translate(678.173828 0)"/>
     <use xlink:href="#Arial-ItalicMT-6d" transform="translate(733.789062 0)"/>
     <use xlink:href="#Arial-ItalicMT-73" transform="translate(817.089844 0)"/>
     <use xlink:href="#Arial-ItalicMT-29" transform="translate(867.089844 0)"/>
    </g>
   </g>
   <g id="legend_1">
    <g id="patch_9">
     <path d="M 182.405938 18.595781 
L 196.405938 18.595781 
L 196.405938 13.695781 
L 182.405938 13.695781 
z
" style="fill: #ff0000; stroke: #ff0000; stroke-linejoin: miter"/>
    </g>
    <g id="text_13">
     <!-- Consensus (weighted) -->
     <g transform="translate(202.005938 18.595781) scale(0.07 -0.07)">
      <defs>
       <path id="ArialMT-73" d="M 197 991 
L 753 1078 
Q 800 744 1014 566 
Q 1228 388 1613 388 
Q 2000 388 2187 545 
Q 2375 703 2375 916 
Q 2375 1106 2209 1216 
Q 2094 1291 1634 1406 
Q 1016 1563 777 1677 
Q 538 1791 414 1992 
Q 291 2194 291 2438 
Q 291 2659 392 2848 
Q 494 3038 669 3163 
Q 800 3259 1026 3326 
Q 1253 3394 1513 3394 
Q 1903 3394 2198 3281 
Q 2494 3169 2634 2976 
Q 2775 2784 2828 2463 
L 2278 2388 
Q 2241 2644 2061 2787 
Q 1881 2931 1553 2931 
Q 1166 2931 1000 2803 
Q 834 2675 834 2503 
Q 834 2394 903 2306 
Q 972 2216 1119 2156 
Q 1203 2125 1616 2013 
Q 2213 1853 2448 1751 
Q 2684 1650 2818 1456 
Q 2953 1263 2953 975 
Q 2953 694 2789 445 
Q 2625 197 2315 61 
Q 2006 -75 1616 -75 
Q 969 -75 630 194 
Q 291 463 197 991 
z
" transform="scale(0.015625)"/>
       <path id="ArialMT-65" d="M 2694 1069 
L 3275 997 
Q 3138 488 2766 206 
Q 2394 -75 1816 -75 
Q 1088 -75 661 373 
Q 234 822 234 1631 
Q 234 2469 665 2931 
Q 1097 3394 1784 3394 
Q 2450 3394 2872 2941 
Q 3294 2488 3294 1666 
Q 3294 1616 3291 1516 
L 816 1516 
Q 847 969 1125 678 
Q 1403 388 1819 388 
Q 2128 388 2347 550 
Q 2566 713 2694 1069 
z
M 847 1978 
L 2700 1978 
Q 2663 2397 2488 2606 
Q 2219 2931 1791 2931 
Q 1403 2931 1139 2672 
Q 875 2413 847 1978 
z
" transform="scale(0.015625)"/>
       <path id="ArialMT-75" d="M 2597 0 
L 2597 488 
Q 2209 -75 1544 -75 
Q 1250 -75 995 37 
Q 741 150 617 320 
Q 494 491 444 738 
Q 409 903 409 1263 
L 409 3319 
L 972 3319 
L 972 1478 
Q 972 1038 1006 884 
Q 1059 663 1231 536 
Q 1403 409 1656 409 
Q 1909 409 2131 539 
Q 2353 669 2445 892 
Q 2538 1116 2538 1541 
L 2538 3319 
L 3100 3319 
L 3100 0 
L 2597 0 
z
" transform="scale(0.015625)"/>
       <path id="ArialMT-20" transform="scale(0.015625)"/>
       <path id="ArialMT-28" d="M 1497 -1347 
Q 1031 -759 709 28 
Q 388 816 388 1659 
Q 388 2403 628 3084 
Q 909 3875 1497 4659 
L 1900 4659 
Q 1522 4009 1400 3731 
Q 1209 3300 1100 2831 
Q 966 2247 966 1656 
Q 966 153 1900 -1347 
L 1497 -1347 
z
" transform="scale(0.015625)"/>
       <path id="ArialMT-77" d="M 1034 0 
L 19 3319 
L 600 3319 
L 1128 1403 
L 1325 691 
Q 1338 744 1497 1375 
L 2025 3319 
L 2603 3319 
L 3100 1394 
L 3266 759 
L 3456 1400 
L 4025 3319 
L 4572 3319 
L 3534 0 
L 2950 0 
L 2422 1988 
L 2294 2553 
L 1622 0 
L 1034 0 
z
" transform="scale(0.015625)"/>
       <path id="ArialMT-64" d="M 2575 0 
L 2575 419 
Q 2259 -75 1647 -75 
Q 1250 -75 917 144 
Q 584 363 401 755 
Q 219 1147 219 1656 
Q 219 2153 384 2558 
Q 550 2963 881 3178 
Q 1213 3394 1622 3394 
Q 1922 3394 2156 3267 
Q 2391 3141 2538 2938 
L 2538 4581 
L 3097 4581 
L 3097 0 
L 2575 0 
z
M 797 1656 
Q 797 1019 1065 703 
Q 1334 388 1700 388 
Q 2069 388 2326 689 
Q 2584 991 2584 1609 
Q 2584 2291 2321 2609 
Q 2059 2928 1675 2928 
Q 1300 2928 1048 2622 
Q 797 2316 797 1656 
z
" transform="scale(0.015625)"/>
       <path id="ArialMT-29" d="M 791 -1347 
L 388 -1347 
Q 1322 153 1322 1656 
Q 1322 2244 1188 2822 
Q 1081 3291 891 3722 
Q 769 4003 388 4659 
L 791 4659 
Q 1378 3875 1659 3084 
Q 1900 2403 1900 1659 
Q 1900 816 1576 28 
Q 1253 -759 791 -1347 
z
" transform="scale(0.015625)"/>
      </defs>
      <use xlink:href="#ArialMT-43"/>
      <use xlink:href="#ArialMT-6f" transform="translate(72.216797 0)"/>
      <use xlink:href="#ArialMT-6e" transform="translate(127.832031 0)"/>
      <use xlink:href="#ArialMT-73" transform="translate(183.447266 0)"/>
      <use xlink:href="#ArialMT-65" transform="translate(233.447266 0)"/>
      <use xlink:href="#ArialMT-6e" transform="translate(289.0625 0)"/>
      <use xlink:href="#ArialMT-73" transform="translate(344.677734 0)"/>
      <use xlink:href="#ArialMT-75" transform="translate(394.677734 0)"/>
      <use xlink:href="#ArialMT-73" transform="translate(450.292969 0)"/>
      <use xlink:href="#ArialMT-20" transform="translate(500.292969 0)"/>
      <use xlink:href="#ArialMT-28" transform="translate(528.076172 0)"/>
      <use xlink:href="#ArialMT-77" transform="translate(561.376953 0)"/>
      <use xlink:href="#ArialMT-65" transform="translate(633.59375 0)"/>
      <use xlink:href="#ArialMT-69" transform="translate(689.208984 0)"/>
      <use xlink:href="#ArialMT-67" transform="translate(711.425781 0)"/>
      <use xlink:href="#ArialMT-68" transform="translate(767.041016 0)"/>
      <use xlink:href="#ArialMT-74" transform="translate(822.65625 0)"/>
      <use xlink:href="#ArialMT-65" transform="translate(850.439453 0)"/>
      <use xlink:href="#ArialMT-64" transform="translate(906.054688 0)"/>
      <use xlink:href="#ArialMT-29" transform="translate(961.669922 0)"/>
     </g>
    </g>
   </g>
  </g>
 </g>
 <defs>
  <clipPath id="p5716f470e5">
   <rect x="38.704375" y="7.2" width="239.245" height="135.16"/>
  </clipPath>
 </defs>
</svg>
